<svg xmlns="http://www.w3.org/2000/svg" xmlns:xlink="http://www.w3.org/1999/xlink" width="500" zoomAndPan="magnify" viewBox="0 0 375 374.999991" height="500" preserveAspectRatio="xMidYMid meet" version="1.0"><defs><clipPath id="id1"><path d="M 59.316406 118 L 165.816406 118 L 165.816406 238.734375 L 59.316406 238.734375 Z M 59.316406 118 " clip-rule="nonzero"/></clipPath><clipPath id="id2"><path d="M 69 88.734375 L 90 88.734375 L 90 109 L 69 109 Z M 69 88.734375 " clip-rule="nonzero"/></clipPath><clipPath id="id3"><path d="M 91 88.734375 L 111 88.734375 L 111 109 L 91 109 Z M 91 88.734375 " clip-rule="nonzero"/></clipPath><clipPath id="id4"><path d="M 113 88.734375 L 137 88.734375 L 137 109 L 113 109 Z M 113 88.734375 " clip-rule="nonzero"/></clipPath><clipPath id="id5"><path d="M 139 88.734375 L 157 88.734375 L 157 109 L 139 109 Z M 139 88.734375 " clip-rule="nonzero"/></clipPath><clipPath id="id6"><path d="M 209.316406 118 L 315.816406 118 L 315.816406 238.734375 L 209.316406 238.734375 Z M 209.316406 118 " clip-rule="nonzero"/></clipPath><clipPath id="id7"><path d="M 234 88.734375 L 251 88.734375 L 251 109 L 234 109 Z M 234 88.734375 " clip-rule="nonzero"/></clipPath><clipPath id="id8"><path d="M 253 88.734375 L 270 88.734375 L 270 110 L 253 110 Z M 253 88.734375 " clip-rule="nonzero"/></clipPath><clipPath id="id9"><path d="M 273 88.734375 L 290 88.734375 L 290 110 L 273 110 Z M 273 88.734375 " clip-rule="nonzero"/></clipPath><clipPath id="id10"><path d="M 112.5 136.265625 L 262.5 136.265625 L 262.5 286 L 112.5 286 Z M 112.5 136.265625 " clip-rule="nonzero"/></clipPath><clipPath id="id11"><path d="M 112.5 136.265625 L 188 136.265625 L 188 286 L 112.5 286 Z M 112.5 136.265625 " clip-rule="nonzero"/></clipPath></defs><g clip-path="url(#id1)"><path fill="#e44d26" d="M 165.789062 118.214844 L 156.097656 226.667969 L 112.523438 238.730469 L 69.070312 226.683594 L 59.386719 118.214844 L 165.789062 118.210938 L 165.792969 118.210938 Z M 165.789062 118.214844 " fill-opacity="1" fill-rule="nonzero"/></g><path fill="#f16529" d="M 112.589844 229.507812 L 147.800781 219.761719 L 156.085938 127.082031 L 112.589844 127.082031 Z M 112.589844 229.507812 " fill-opacity="1" fill-rule="nonzero"/><path fill="#ebebeb" d="M 93.746094 153.6875 L 112.589844 153.6875 L 112.589844 140.382812 L 79.1875 140.382812 L 79.503906 143.953125 L 82.777344 180.613281 L 112.589844 180.613281 L 112.589844 167.3125 L 94.960938 167.3125 Z M 93.746094 153.6875 " fill-opacity="1" fill-rule="nonzero"/><path fill="#ebebeb" d="M 96.746094 187.265625 L 83.375 187.265625 L 85.242188 208.15625 L 112.527344 215.722656 L 112.589844 215.703125 L 112.589844 201.863281 L 112.53125 201.878906 L 97.695312 197.875 Z M 96.746094 187.265625 " fill-opacity="1" fill-rule="nonzero"/><g clip-path="url(#id2)"><path fill="#000000" d="M 69.285156 88.734375 L 76.054688 88.734375 L 76.054688 95.414062 L 82.246094 95.414062 L 82.246094 88.734375 L 89.019531 88.734375 L 89.019531 108.960938 L 82.25 108.960938 L 82.25 102.191406 L 76.054688 102.191406 L 76.054688 108.960938 L 69.285156 108.960938 Z M 69.285156 88.734375 " fill-opacity="1" fill-rule="nonzero"/></g><g clip-path="url(#id3)"><path fill="#000000" d="M 97.921875 95.445312 L 91.960938 95.445312 L 91.960938 88.734375 L 110.652344 88.734375 L 110.652344 95.445312 L 104.6875 95.445312 L 104.6875 108.960938 L 97.921875 108.960938 Z M 97.921875 95.445312 " fill-opacity="1" fill-rule="nonzero"/></g><g clip-path="url(#id4)"><path fill="#000000" d="M 113.621094 88.734375 L 120.675781 88.734375 L 125.019531 95.84375 L 129.355469 88.734375 L 136.417969 88.734375 L 136.417969 108.960938 L 129.675781 108.960938 L 129.675781 98.9375 L 125.019531 106.128906 L 124.902344 106.128906 L 120.242188 98.9375 L 120.242188 108.960938 L 113.621094 108.960938 Z M 113.621094 88.734375 " fill-opacity="1" fill-rule="nonzero"/></g><g clip-path="url(#id5)"><path fill="#000000" d="M 139.789062 88.734375 L 146.558594 88.734375 L 146.558594 102.277344 L 156.082031 102.277344 L 156.082031 108.960938 L 139.789062 108.960938 Z M 139.789062 88.734375 " fill-opacity="1" fill-rule="nonzero"/></g><path fill="#ffffff" d="M 112.542969 180.613281 L 128.949219 180.613281 L 127.398438 197.867188 L 112.542969 201.875 L 112.542969 215.714844 L 139.851562 208.15625 L 140.050781 205.90625 L 143.183594 170.882812 L 143.507812 167.3125 L 112.542969 167.3125 Z M 112.542969 180.613281 " fill-opacity="1" fill-rule="nonzero"/><path fill="#ffffff" d="M 112.542969 153.65625 L 112.542969 153.6875 L 144.71875 153.6875 L 144.984375 150.699219 L 145.59375 143.953125 L 145.910156 140.382812 L 112.542969 140.382812 Z M 112.542969 153.65625 " fill-opacity="1" fill-rule="nonzero"/><g clip-path="url(#id6)"><path fill="#264de4" d="M 262.523438 238.730469 L 219.070312 226.683594 L 209.386719 118.214844 L 315.789062 118.214844 L 306.097656 226.667969 Z M 262.523438 238.730469 " fill-opacity="1" fill-rule="nonzero"/></g><path fill="#2965f1" d="M 297.800781 219.761719 L 306.085938 127.082031 L 262.589844 127.082031 L 262.589844 229.507812 Z M 297.800781 219.761719 " fill-opacity="1" fill-rule="nonzero"/><path fill="#ebebeb" d="M 231.585938 167.3125 L 232.777344 180.613281 L 262.589844 180.613281 L 262.589844 167.3125 Z M 231.585938 167.3125 " fill-opacity="1" fill-rule="nonzero"/><path fill="#ebebeb" d="M 229.1875 140.382812 L 230.398438 153.6875 L 262.589844 153.6875 L 262.589844 140.382812 Z M 229.1875 140.382812 " fill-opacity="1" fill-rule="nonzero"/><path fill="#ebebeb" d="M 262.589844 201.863281 L 262.53125 201.878906 L 247.695312 197.875 L 246.746094 187.265625 L 233.375 187.265625 L 235.242188 208.15625 L 262.527344 215.722656 L 262.589844 215.703125 Z M 262.589844 201.863281 " fill-opacity="1" fill-rule="nonzero"/><g clip-path="url(#id7)"><path fill="#000000" d="M 234.429688 88.734375 L 250.5625 88.734375 L 250.5625 95.472656 L 241.175781 95.472656 L 241.175781 102.210938 L 250.5625 102.210938 L 250.5625 108.949219 L 234.429688 108.949219 Z M 234.429688 88.734375 " fill-opacity="1" fill-rule="nonzero"/></g><g clip-path="url(#id8)"><path fill="#000000" d="M 253.789062 88.734375 L 269.921875 88.734375 L 269.921875 94.59375 L 260.535156 94.59375 L 260.535156 95.765625 L 269.921875 95.765625 L 269.921875 109.242188 L 253.789062 109.242188 L 253.789062 103.089844 L 263.175781 103.089844 L 263.175781 101.917969 L 253.789062 101.917969 Z M 253.789062 88.734375 " fill-opacity="1" fill-rule="nonzero"/></g><g clip-path="url(#id9)"><path fill="#000000" d="M 273.148438 88.734375 L 289.285156 88.734375 L 289.285156 94.59375 L 279.894531 94.59375 L 279.894531 95.765625 L 289.285156 95.765625 L 289.285156 109.242188 L 273.148438 109.242188 L 273.148438 103.089844 L 282.535156 103.089844 L 282.535156 101.917969 L 273.148438 101.917969 Z M 273.148438 88.734375 " fill-opacity="1" fill-rule="nonzero"/></g><path fill="#ffffff" d="M 293.507812 167.3125 L 295.910156 140.382812 L 262.542969 140.382812 L 262.542969 153.6875 L 281.3125 153.6875 L 280.101562 167.3125 L 262.542969 167.3125 L 262.542969 180.613281 L 278.949219 180.613281 L 277.398438 197.867188 L 262.542969 201.875 L 262.542969 215.714844 L 289.851562 208.15625 L 290.050781 205.90625 L 293.183594 170.882812 Z M 293.507812 167.3125 " fill-opacity="1" fill-rule="nonzero"/><g clip-path="url(#id10)"><path fill="#ffc44d" d="M 118.082031 135.914062 C 116.582031 135.914062 115.152344 136.558594 114.160156 137.683594 C 113.164062 138.808594 112.703125 140.308594 112.890625 141.796875 L 126.84375 253.425781 C 127.058594 255.160156 128.128906 256.671875 129.695312 257.457031 L 185.507812 285.363281 C 186.980469 286.097656 188.714844 286.097656 190.1875 285.363281 L 246.003906 257.457031 C 247.566406 256.671875 248.636719 255.160156 248.855469 253.425781 L 262.808594 141.796875 C 262.996094 140.308594 262.53125 138.808594 261.539062 137.683594 C 260.546875 136.558594 259.117188 135.914062 257.617188 135.914062 Z M 118.082031 135.914062 " fill-opacity="1" fill-rule="nonzero"/></g><g clip-path="url(#id11)"><path fill="#e5b045" d="M 187.847656 135.914062 L 187.847656 285.914062 C 187.046875 285.914062 186.246094 285.730469 185.507812 285.363281 L 129.695312 257.457031 C 128.128906 256.671875 127.058594 255.160156 126.84375 253.425781 L 112.890625 141.796875 C 112.703125 140.308594 113.164062 138.808594 114.160156 137.683594 C 115.152344 136.558594 116.582031 135.914062 118.082031 135.914062 Z M 187.847656 135.914062 " fill-opacity="1" fill-rule="evenodd"/></g><path fill="#cfd8dc" d="M 177.382812 156.84375 C 180.273438 156.84375 182.617188 159.1875 182.617188 162.078125 L 182.617188 252.777344 C 182.617188 254.640625 181.625 256.367188 180.011719 257.300781 C 178.398438 258.238281 176.40625 258.246094 174.789062 257.320312 L 150.371094 243.367188 C 147.859375 241.933594 146.988281 238.734375 148.421875 236.226562 C 149.855469 233.71875 153.054688 232.84375 155.5625 234.277344 L 172.152344 243.757812 L 172.152344 162.078125 C 172.152344 159.1875 174.496094 156.84375 177.382812 156.84375 Z M 177.382812 156.84375 " fill-opacity="1" fill-rule="evenodd"/><path fill="#eceff1" d="M 193.082031 162.078125 C 193.082031 159.1875 195.425781 156.84375 198.316406 156.84375 L 233.199219 156.84375 C 236.089844 156.84375 238.429688 159.1875 238.429688 162.078125 C 238.429688 164.96875 236.089844 167.3125 233.199219 167.3125 L 203.546875 167.3125 L 203.546875 200.902344 L 228.574219 195.34375 C 230.207031 194.980469 231.910156 195.417969 233.167969 196.519531 C 234.421875 197.625 235.074219 199.261719 234.921875 200.925781 L 231.433594 239.296875 C 231.269531 241.101562 230.183594 242.691406 228.5625 243.503906 L 200.65625 257.457031 C 198.070312 258.75 194.925781 257.699219 193.632812 255.117188 C 192.34375 252.53125 193.390625 249.386719 195.976562 248.097656 L 221.273438 235.445312 L 223.851562 207.113281 L 199.449219 212.535156 C 197.902344 212.878906 196.277344 212.5 195.042969 211.507812 C 193.804688 210.515625 193.082031 209.015625 193.082031 207.425781 Z M 193.082031 162.078125 " fill-opacity="1" fill-rule="evenodd"/></svg>