<svg xmlns="http://www.w3.org/2000/svg" xmlns:xlink="http://www.w3.org/1999/xlink" width="500" zoomAndPan="magnify" viewBox="0 0 375 374.999991" height="500" preserveAspectRatio="xMidYMid meet" version="1.0"><defs><clipPath id="id1"><path d="M 110.191406 43.078125 L 264.691406 43.078125 L 264.691406 210 L 110.191406 210 Z M 110.191406 43.078125 " clip-rule="nonzero"/></clipPath><clipPath id="id2"><path d="M 59.316406 156 L 165.816406 156 L 165.816406 277.375 L 59.316406 277.375 Z M 59.316406 156 " clip-rule="nonzero"/></clipPath><clipPath id="id3"><path d="M 69 127.375 L 90 127.375 L 90 148 L 69 148 Z M 69 127.375 " clip-rule="nonzero"/></clipPath><clipPath id="id4"><path d="M 91 127.375 L 111 127.375 L 111 148 L 91 148 Z M 91 127.375 " clip-rule="nonzero"/></clipPath><clipPath id="id5"><path d="M 113 127.375 L 137 127.375 L 137 148 L 113 148 Z M 113 127.375 " clip-rule="nonzero"/></clipPath><clipPath id="id6"><path d="M 139 127.375 L 157 127.375 L 157 148 L 139 148 Z M 139 127.375 " clip-rule="nonzero"/></clipPath><clipPath id="id7"><path d="M 209.316406 156 L 315.816406 156 L 315.816406 277.375 L 209.316406 277.375 Z M 209.316406 156 " clip-rule="nonzero"/></clipPath><clipPath id="id8"><path d="M 234 127.375 L 251 127.375 L 251 148 L 234 148 Z M 234 127.375 " clip-rule="nonzero"/></clipPath><clipPath id="id9"><path d="M 253 127.375 L 270 127.375 L 270 148 L 253 148 Z M 253 127.375 " clip-rule="nonzero"/></clipPath><clipPath id="id10"><path d="M 273 127.375 L 290 127.375 L 290 148 L 273 148 Z M 273 127.375 " clip-rule="nonzero"/></clipPath><clipPath id="id11"><path d="M 112.5 174.90625 L 262.5 174.90625 L 262.5 324.90625 L 112.5 324.90625 Z M 112.5 174.90625 " clip-rule="nonzero"/></clipPath><clipPath id="id12"><path d="M 112.5 174.90625 L 188 174.90625 L 188 324.90625 L 112.5 324.90625 Z M 112.5 174.90625 " clip-rule="nonzero"/></clipPath></defs><g clip-path="url(#id1)"><path fill="#ffffff" d="M 264.199219 147.414062 C 260.875 142.535156 237.972656 91.515625 237.636719 88.496094 C 244.894531 87.398438 249.523438 81.417969 249.550781 75.210938 C 249.570312 70.277344 244.839844 68.722656 242.820312 70.910156 C 241.476562 72.371094 242.324219 74.773438 243.6875 74.875 C 243.695312 77.164062 242.539062 77.8125 240.8125 79.503906 C 239.140625 81.144531 233.324219 79.078125 231.171875 78.167969 C 227.773438 76.722656 224.667969 74.753906 220.585938 72.273438 L 220.589844 72.277344 C 215.78125 69.425781 213.640625 68.578125 211.285156 67.769531 L 211.285156 67.761719 C 202.472656 65.214844 198.628906 67.816406 196.007812 69.296875 L 196.0625 69.324219 L 195.980469 69.332031 C 193.980469 70.589844 193.082031 71.367188 191.304688 71.792969 C 191.304688 71.792969 190.574219 71.488281 190.574219 71.488281 C 190.046875 71.265625 189.804688 67.703125 190.519531 66.132812 C 191.839844 63.246094 196.222656 62.796875 197.046875 57.6875 C 197.722656 53.636719 195.449219 50.730469 192.5 47.984375 C 192.5 47.984375 192.539062 47.960938 192.539062 47.960938 C 192.496094 47.984375 191.511719 46.992188 191.414062 46.898438 C 190.914062 46.410156 190.5625 45.789062 190.167969 45.210938 C 188.710938 43.074219 187.203125 43.605469 187.445312 43.582031 C 184.808594 43.820312 184.402344 46.269531 183.414062 47.148438 L 182.394531 48.105469 L 182.433594 48.117188 C 181.105469 49.359375 178.894531 51.277344 178.148438 54.542969 C 177.277344 58.25 178.796875 60.933594 181.699219 63.261719 C 183.703125 64.867188 185.46875 65.738281 184.890625 70.230469 C 184.644531 72.152344 184.105469 72.007812 182.976562 71.574219 C 177.382812 69.433594 173.835938 60.882812 153.308594 72.96875 L 153.328125 72.984375 C 152.566406 73.445312 152.527344 73.445312 151.632812 74.035156 L 151.613281 74.113281 C 148.136719 76.003906 144.660156 78.320312 140.019531 79.511719 C 138.667969 79.855469 137.195312 80.414062 135.792969 80.101562 C 133.3125 79.550781 131.210938 76.664062 131.398438 74.886719 C 131.394531 74.914062 132.191406 74.5 132.265625 74.429688 C 133.914062 72.835938 132.480469 69.289062 129.105469 70.042969 C 121.835938 71.664062 126.023438 87.421875 137.457031 88.394531 C 137.269531 89.996094 122.171875 126.144531 111.046875 146.90625 C 110.695312 147.824219 110.210938 148.152344 110.503906 149.042969 C 110.90625 150.25 112.765625 151.34375 113.953125 151.78125 C 114.128906 151.785156 114.125 151.785156 114.125 151.785156 C 115.957031 158.917969 121.351562 165.402344 126.121094 168.585938 C 132.734375 172.996094 142.542969 172.996094 146.804688 172.246094 C 154.757812 170.890625 165.777344 163.980469 168.863281 154.734375 C 169.28125 153.484375 169.292969 153.472656 169.808594 152.089844 C 171.859375 152.101562 172.800781 149.757812 173.089844 149.351562 C 173.199219 147.96875 172.6875 147.050781 171.296875 146.621094 C 167.289062 137.652344 166.425781 139.734375 157.722656 117.738281 C 147.796875 92.574219 150.675781 95.28125 146.417969 87.1875 C 146.765625 86.992188 147.109375 86.796875 147.453125 86.605469 C 147.410156 86.636719 147.394531 86.734375 147.398438 86.78125 C 149 85.90625 151.742188 82.824219 156.078125 80.390625 L 156.066406 80.308594 C 158.363281 79.417969 158.667969 79.316406 159.277344 78.996094 C 162.273438 78.5625 170.925781 76.46875 178.296875 88.371094 L 178.285156 88.472656 C 178.910156 89.726562 180.839844 94.605469 181.140625 95.765625 C 177.980469 96.125 177.855469 99.136719 177.671875 102.171875 L 177.753906 102.128906 C 177.761719 103.019531 177.890625 103.832031 178.085938 104.679688 L 177.988281 104.699219 C 178.214844 105.152344 178.148438 104.964844 178.273438 105.519531 L 178.382812 105.484375 C 178.945312 106.601562 179.742188 107.703125 180.585938 108.6875 L 180.84375 109.554688 C 181.371094 111.359375 179.164062 112.503906 178.878906 115.765625 C 178.585938 119.144531 180.15625 120.511719 180.023438 122.296875 C 179.84375 124.6875 178.847656 125.371094 179.8125 128.164062 L 179.792969 128.203125 C 180.0625 128.742188 180.253906 129.328125 180.476562 129.890625 C 180.742188 130.566406 181.195312 130.9375 181.199219 131.75 C 181.203125 132.382812 180.933594 132.988281 180.753906 133.589844 C 178.105469 142.40625 184.632812 145.410156 172.699219 167.558594 L 172.683594 167.539062 C 170.335938 172.007812 168.964844 173.6875 170.859375 179.824219 C 172.566406 185.367188 170.625 185.324219 165.15625 190.078125 L 165.214844 190.113281 C 164.867188 190.457031 156.121094 200.214844 155.851562 200.515625 C 155.503906 200.898438 157.378906 202.457031 157.648438 202.628906 C 159.300781 203.691406 160.28125 203.628906 165.339844 205.449219 C 183.085938 211.828125 202.226562 209.976562 216.875 203.070312 C 218.25 202.390625 219.238281 201.535156 219.152344 200.03125 C 219.152344 200.023438 217.96875 199.0625 217.847656 198.9375 C 217.800781 198.886719 213.839844 194.417969 213.839844 194.359375 C 209.765625 189.640625 210.277344 190.4375 208.460938 188.777344 L 208.433594 188.800781 C 202.097656 183.765625 203.113281 184.402344 205.03125 176.765625 L 204.941406 176.8125 C 205.453125 173.429688 204.550781 171.867188 203.28125 169.066406 L 203.230469 169.117188 C 202.457031 167.664062 202.1875 167.324219 201.359375 165.535156 L 201.339844 165.535156 C 197.273438 156.921875 196.25 153.9375 195.128906 149.042969 C 195.128906 149.042969 195 147.863281 194.945312 147.25 L 194.929688 147.25 C 194.808594 145.1875 194.84375 144.222656 194.953125 142.4375 L 194.925781 142.425781 C 195.058594 139.121094 195.121094 137.355469 194.609375 134.667969 L 194.617188 134.667969 C 194.582031 134.539062 194.605469 134.660156 194.472656 133.960938 L 194.429688 133.980469 C 194.140625 132.90625 193.816406 131.988281 194.011719 131.09375 C 194.148438 130.464844 194.511719 129.261719 195.066406 128.871094 C 195.789062 127.179688 195.839844 125.570312 195.367188 123.816406 C 194.328125 119.949219 198.171875 117.910156 194.90625 112.101562 C 193.953125 110.40625 194.105469 110.402344 194.355469 108.6875 C 194.578125 108.511719 194.730469 108.40625 194.890625 108.136719 L 194.894531 108.171875 L 196.324219 106.160156 C 197.546875 104.441406 198.582031 96.566406 194.019531 95.761719 L 193.910156 95.875 L 193.882812 95.851562 C 194.3125 94.507812 196.128906 89.910156 196.308594 89.476562 L 196.285156 89.4375 C 200.019531 82.246094 205.546875 78.953125 210.550781 78.609375 C 211.8125 78.523438 211.90625 78.488281 214.5 78.785156 L 214.496094 78.714844 L 214.542969 78.808594 C 217.355469 79.492188 218.238281 79.96875 220.761719 81.371094 L 220.757812 81.433594 C 222.207031 82.386719 221.898438 82.171875 227.027344 86.332031 L 226.921875 86.121094 C 227.492188 86.515625 228.089844 86.863281 228.710938 87.167969 C 224.371094 94.535156 226.554688 96 215.777344 121.613281 C 207.191406 142.128906 208.035156 137.183594 203.769531 146.625 C 202.378906 147.0625 201.875 147.964844 201.980469 149.273438 C 202.230469 149.695312 203.148438 152.078125 205.273438 152.082031 C 207.457031 158.003906 206.242188 156.167969 208.28125 159.160156 C 212.324219 165.09375 218.589844 169.527344 224.90625 171.441406 C 232.664062 173.789062 242.484375 172.375 247.132812 169.644531 C 253.53125 165.882812 258.847656 159.625 260.972656 151.777344 C 261.914062 151.648438 264.464844 150.167969 264.628906 148.761719 C 264.667969 148.433594 264.625 147.9375 264.199219 147.414062 Z M 151.191406 109.839844 C 155.355469 123.015625 165.382812 144.847656 166.542969 146.460938 C 164.136719 146.625 164.046875 146.699219 158.296875 146.507812 C 139.3125 145.882812 152.726562 147.417969 116.238281 146.203125 C 117.59375 141.613281 120.4375 137.988281 122.5 133.613281 C 125.078125 128.164062 127.332031 122.527344 129.804688 117.066406 C 134.289062 107.054688 138.117188 98.988281 140.53125 88.664062 C 141.367188 88.648438 142.167969 88.605469 143.21875 88.375 C 144.921875 90.445312 150.359375 107.277344 151.191406 109.839844 Z M 160.113281 75.0625 C 160.207031 74.945312 160.28125 74.828125 160.332031 74.703125 C 160.335938 74.808594 160.253906 74.960938 160.113281 75.0625 Z M 175.101562 81.011719 C 175.089844 80.988281 175.078125 80.960938 175.070312 80.933594 C 175.089844 80.925781 175.121094 80.921875 175.152344 80.925781 C 175.144531 80.949219 175.128906 80.984375 175.101562 81.011719 Z M 184.027344 84.527344 C 184.007812 84.496094 183.996094 84.464844 183.992188 84.4375 C 184.027344 84.429688 184.035156 84.433594 184.046875 84.441406 C 184.042969 84.46875 184.035156 84.5 184.027344 84.527344 Z M 201.894531 79.300781 C 201.890625 79.277344 201.894531 79.253906 201.894531 79.234375 C 201.941406 79.246094 201.976562 79.265625 202.007812 79.285156 Z M 244.214844 146.640625 C 236.71875 147.054688 229.179688 146.3125 224.339844 146.355469 C 217.585938 146.308594 214.164062 146.867188 208.542969 146.449219 C 208.785156 146.21875 208.621094 146.355469 208.921875 146.105469 C 209.394531 144.882812 209.273438 144.550781 210.730469 141.824219 C 212.929688 137.945312 220.132812 120.980469 223 112.546875 C 230.875 89.347656 230.074219 90.609375 231.890625 88.285156 C 232.757812 88.484375 233.644531 88.605469 234.539062 88.648438 C 237.214844 100.039062 240.773438 106.757812 249.953125 127.804688 C 255.585938 140.539062 257.308594 140.933594 258.847656 146.265625 C 258.847656 146.265625 253.375 146.242188 244.214844 146.640625 Z M 244.214844 146.640625 " fill-opacity="1" fill-rule="nonzero"/></g><g clip-path="url(#id2)"><path fill="#e44d26" d="M 165.789062 156.855469 L 156.097656 265.308594 L 112.523438 277.371094 L 69.070312 265.324219 L 59.386719 156.855469 L 165.789062 156.851562 L 165.792969 156.851562 Z M 165.789062 156.855469 " fill-opacity="1" fill-rule="nonzero"/></g><path fill="#f16529" d="M 112.589844 268.148438 L 147.800781 258.402344 L 156.085938 165.722656 L 112.589844 165.722656 Z M 112.589844 268.148438 " fill-opacity="1" fill-rule="nonzero"/><path fill="#ebebeb" d="M 93.746094 192.328125 L 112.589844 192.328125 L 112.589844 179.023438 L 79.1875 179.023438 L 79.503906 182.59375 L 82.777344 219.253906 L 112.589844 219.253906 L 112.589844 205.953125 L 94.960938 205.953125 Z M 93.746094 192.328125 " fill-opacity="1" fill-rule="nonzero"/><path fill="#ebebeb" d="M 96.746094 225.90625 L 83.375 225.90625 L 85.242188 246.796875 L 112.527344 254.363281 L 112.589844 254.34375 L 112.589844 240.503906 L 112.53125 240.519531 L 97.695312 236.515625 Z M 96.746094 225.90625 " fill-opacity="1" fill-rule="nonzero"/><g clip-path="url(#id3)"><path fill="#000000" d="M 69.285156 127.375 L 76.054688 127.375 L 76.054688 134.054688 L 82.246094 134.054688 L 82.246094 127.375 L 89.019531 127.375 L 89.019531 147.601562 L 82.25 147.601562 L 82.25 140.828125 L 76.054688 140.828125 L 76.054688 147.601562 L 69.285156 147.601562 Z M 69.285156 127.375 " fill-opacity="1" fill-rule="nonzero"/></g><g clip-path="url(#id4)"><path fill="#000000" d="M 97.921875 134.082031 L 91.960938 134.082031 L 91.960938 127.375 L 110.652344 127.375 L 110.652344 134.082031 L 104.6875 134.082031 L 104.6875 147.601562 L 97.921875 147.601562 Z M 97.921875 134.082031 " fill-opacity="1" fill-rule="nonzero"/></g><g clip-path="url(#id5)"><path fill="#000000" d="M 113.621094 127.375 L 120.675781 127.375 L 125.019531 134.484375 L 129.355469 127.375 L 136.417969 127.375 L 136.417969 147.601562 L 129.675781 147.601562 L 129.675781 137.578125 L 125.019531 144.769531 L 124.902344 144.769531 L 120.242188 137.578125 L 120.242188 147.601562 L 113.621094 147.601562 Z M 113.621094 127.375 " fill-opacity="1" fill-rule="nonzero"/></g><g clip-path="url(#id6)"><path fill="#000000" d="M 139.789062 127.375 L 146.558594 127.375 L 146.558594 140.917969 L 156.082031 140.917969 L 156.082031 147.601562 L 139.789062 147.601562 Z M 139.789062 127.375 " fill-opacity="1" fill-rule="nonzero"/></g><path fill="#ffffff" d="M 112.542969 219.253906 L 128.949219 219.253906 L 127.398438 236.507812 L 112.542969 240.515625 L 112.542969 254.351562 L 139.851562 246.796875 L 140.050781 244.546875 L 143.183594 209.523438 L 143.507812 205.953125 L 112.542969 205.953125 Z M 112.542969 219.253906 " fill-opacity="1" fill-rule="nonzero"/><path fill="#ffffff" d="M 112.542969 192.296875 L 112.542969 192.328125 L 144.71875 192.328125 L 144.984375 189.339844 L 145.59375 182.59375 L 145.910156 179.023438 L 112.542969 179.023438 Z M 112.542969 192.296875 " fill-opacity="1" fill-rule="nonzero"/><g clip-path="url(#id7)"><path fill="#264de4" d="M 262.523438 277.371094 L 219.070312 265.324219 L 209.386719 156.855469 L 315.789062 156.855469 L 306.097656 265.308594 Z M 262.523438 277.371094 " fill-opacity="1" fill-rule="nonzero"/></g><path fill="#2965f1" d="M 297.800781 258.402344 L 306.085938 165.722656 L 262.589844 165.722656 L 262.589844 268.148438 Z M 297.800781 258.402344 " fill-opacity="1" fill-rule="nonzero"/><path fill="#ebebeb" d="M 231.585938 205.953125 L 232.777344 219.253906 L 262.589844 219.253906 L 262.589844 205.953125 Z M 231.585938 205.953125 " fill-opacity="1" fill-rule="nonzero"/><path fill="#ebebeb" d="M 229.1875 179.023438 L 230.398438 192.328125 L 262.589844 192.328125 L 262.589844 179.023438 Z M 229.1875 179.023438 " fill-opacity="1" fill-rule="nonzero"/><path fill="#ebebeb" d="M 262.589844 240.503906 L 262.53125 240.519531 L 247.695312 236.515625 L 246.746094 225.90625 L 233.375 225.90625 L 235.242188 246.796875 L 262.527344 254.363281 L 262.589844 254.34375 Z M 262.589844 240.503906 " fill-opacity="1" fill-rule="nonzero"/><g clip-path="url(#id8)"><path fill="#000000" d="M 234.429688 127.375 L 250.5625 127.375 L 250.5625 134.113281 L 241.175781 134.113281 L 241.175781 140.851562 L 250.5625 140.851562 L 250.5625 147.589844 L 234.429688 147.589844 Z M 234.429688 127.375 " fill-opacity="1" fill-rule="nonzero"/></g><g clip-path="url(#id9)"><path fill="#000000" d="M 253.789062 127.375 L 269.921875 127.375 L 269.921875 133.234375 L 260.535156 133.234375 L 260.535156 134.40625 L 269.921875 134.40625 L 269.921875 147.882812 L 253.789062 147.882812 L 253.789062 141.730469 L 263.175781 141.730469 L 263.175781 140.558594 L 253.789062 140.558594 Z M 253.789062 127.375 " fill-opacity="1" fill-rule="nonzero"/></g><g clip-path="url(#id10)"><path fill="#000000" d="M 273.148438 127.375 L 289.285156 127.375 L 289.285156 133.234375 L 279.894531 133.234375 L 279.894531 134.40625 L 289.285156 134.40625 L 289.285156 147.882812 L 273.148438 147.882812 L 273.148438 141.730469 L 282.535156 141.730469 L 282.535156 140.558594 L 273.148438 140.558594 Z M 273.148438 127.375 " fill-opacity="1" fill-rule="nonzero"/></g><path fill="#ffffff" d="M 293.507812 205.953125 L 295.910156 179.023438 L 262.542969 179.023438 L 262.542969 192.328125 L 281.3125 192.328125 L 280.101562 205.953125 L 262.542969 205.953125 L 262.542969 219.253906 L 278.949219 219.253906 L 277.398438 236.507812 L 262.542969 240.515625 L 262.542969 254.351562 L 289.851562 246.796875 L 290.050781 244.546875 L 293.183594 209.523438 Z M 293.507812 205.953125 " fill-opacity="1" fill-rule="nonzero"/><g clip-path="url(#id11)"><path fill="#ffc44d" d="M 118.082031 174.554688 C 116.582031 174.554688 115.152344 175.199219 114.160156 176.324219 C 113.164062 177.449219 112.703125 178.949219 112.890625 180.4375 L 126.84375 292.066406 C 127.058594 293.800781 128.128906 295.3125 129.695312 296.097656 L 185.507812 324.003906 C 186.980469 324.738281 188.714844 324.738281 190.1875 324.003906 L 246.003906 296.097656 C 247.566406 295.3125 248.636719 293.800781 248.855469 292.066406 L 262.808594 180.4375 C 262.996094 178.949219 262.53125 177.449219 261.539062 176.324219 C 260.546875 175.199219 259.117188 174.554688 257.617188 174.554688 Z M 118.082031 174.554688 " fill-opacity="1" fill-rule="nonzero"/></g><g clip-path="url(#id12)"><path fill="#e5b045" d="M 187.847656 174.554688 L 187.847656 324.554688 C 187.046875 324.554688 186.246094 324.371094 185.507812 324.003906 L 129.695312 296.097656 C 128.128906 295.3125 127.058594 293.800781 126.84375 292.066406 L 112.890625 180.4375 C 112.703125 178.949219 113.164062 177.449219 114.160156 176.324219 C 115.152344 175.199219 116.582031 174.554688 118.082031 174.554688 Z M 187.847656 174.554688 " fill-opacity="1" fill-rule="evenodd"/></g><path fill="#cfd8dc" d="M 177.382812 195.484375 C 180.273438 195.484375 182.617188 197.828125 182.617188 200.71875 L 182.617188 291.414062 C 182.617188 293.28125 181.625 295.003906 180.011719 295.941406 C 178.398438 296.878906 176.40625 296.882812 174.789062 295.960938 L 150.371094 282.003906 C 147.859375 280.570312 146.988281 277.375 148.421875 274.867188 C 149.855469 272.359375 153.054688 271.484375 155.5625 272.917969 L 172.152344 282.398438 L 172.152344 200.71875 C 172.152344 197.828125 174.496094 195.484375 177.382812 195.484375 Z M 177.382812 195.484375 " fill-opacity="1" fill-rule="evenodd"/><path fill="#eceff1" d="M 193.082031 200.71875 C 193.082031 197.828125 195.425781 195.484375 198.316406 195.484375 L 233.199219 195.484375 C 236.089844 195.484375 238.429688 197.828125 238.429688 200.71875 C 238.429688 203.609375 236.089844 205.949219 233.199219 205.949219 L 203.546875 205.949219 L 203.546875 239.542969 L 228.574219 233.980469 C 230.207031 233.621094 231.910156 234.058594 233.167969 235.160156 C 234.421875 236.265625 235.074219 237.898438 234.921875 239.5625 L 231.433594 277.9375 C 231.269531 279.742188 230.183594 281.332031 228.5625 282.140625 L 200.65625 296.097656 C 198.070312 297.390625 194.925781 296.339844 193.632812 293.757812 C 192.34375 291.171875 193.390625 288.027344 195.976562 286.734375 L 221.273438 274.085938 L 223.851562 245.753906 L 199.449219 251.175781 C 197.902344 251.519531 196.277344 251.140625 195.042969 250.148438 C 193.804688 249.15625 193.082031 247.65625 193.082031 246.066406 Z M 193.082031 200.71875 " fill-opacity="1" fill-rule="evenodd"/></svg>