<svg xmlns="http://www.w3.org/2000/svg" xmlns:xlink="http://www.w3.org/1999/xlink" width="500" zoomAndPan="magnify" viewBox="0 0 375 374.999991" height="500" preserveAspectRatio="xMidYMid meet" version="1.0"><defs><g/><clipPath id="id1"><path d="M 2.738281 42.460938 L 372.488281 42.460938 L 372.488281 332.710938 L 2.738281 332.710938 Z M 2.738281 42.460938 " clip-rule="nonzero"/></clipPath></defs><g clip-path="url(#id1)"><path fill="#b6ccd7" d="M 306.355469 42.460938 L 68.871094 42.460938 C 16.691406 42.460938 2.902344 85.617188 2.902344 108.429688 L 2.902344 266.746094 C 2.902344 318.925781 46.058594 332.710938 68.871094 332.710938 L 306.355469 332.710938 C 358.535156 332.710938 372.324219 289.558594 372.324219 266.746094 L 372.324219 108.429688 C 372.324219 56.25 329.167969 42.460938 306.355469 42.460938 Z M 345.9375 266.667969 C 345.855469 273.289062 343.601562 306.324219 306.355469 306.324219 L 68.9375 306.324219 C 62.3125 306.246094 29.289062 303.992188 29.289062 266.746094 L 29.289062 148.007812 L 345.9375 148.007812 Z M 345.9375 121.621094 L 29.289062 121.621094 L 29.289062 108.492188 C 29.371094 101.871094 31.625 68.847656 68.871094 68.847656 L 306.277344 68.847656 C 312.898438 68.925781 345.9375 71.183594 345.9375 108.429688 Z M 345.9375 121.621094 " fill-opacity="1" fill-rule="nonzero"/></g><path fill="#b6ccd7" d="M 319.550781 95.234375 C 319.550781 96.101562 319.464844 96.960938 319.296875 97.808594 C 319.125 98.660156 318.875 99.484375 318.542969 100.285156 C 318.214844 101.082031 317.804688 101.84375 317.324219 102.566406 C 316.84375 103.285156 316.296875 103.953125 315.683594 104.5625 C 315.070312 105.175781 314.40625 105.722656 313.683594 106.203125 C 312.964844 106.6875 312.203125 107.09375 311.402344 107.421875 C 310.605469 107.753906 309.777344 108.003906 308.929688 108.175781 C 308.078125 108.34375 307.222656 108.429688 306.355469 108.429688 C 305.488281 108.429688 304.632812 108.34375 303.78125 108.175781 C 302.933594 108.003906 302.105469 107.753906 301.304688 107.421875 C 300.507812 107.09375 299.746094 106.6875 299.023438 106.203125 C 298.304688 105.722656 297.636719 105.175781 297.027344 104.5625 C 296.414062 103.953125 295.867188 103.285156 295.386719 102.566406 C 294.902344 101.84375 294.496094 101.082031 294.167969 100.285156 C 293.835938 99.484375 293.585938 98.660156 293.414062 97.808594 C 293.246094 96.960938 293.160156 96.101562 293.160156 95.234375 C 293.160156 94.367188 293.246094 93.511719 293.414062 92.660156 C 293.585938 91.8125 293.835938 90.984375 294.167969 90.1875 C 294.496094 89.386719 294.902344 88.625 295.386719 87.90625 C 295.867188 87.183594 296.414062 86.519531 297.027344 85.90625 C 297.636719 85.292969 298.304688 84.746094 299.023438 84.265625 C 299.746094 83.785156 300.507812 83.378906 301.304688 83.046875 C 302.105469 82.714844 302.933594 82.464844 303.78125 82.296875 C 304.632812 82.125 305.488281 82.042969 306.355469 82.042969 C 307.222656 82.042969 308.078125 82.125 308.929688 82.296875 C 309.777344 82.464844 310.605469 82.714844 311.402344 83.046875 C 312.203125 83.378906 312.964844 83.785156 313.683594 84.265625 C 314.40625 84.746094 315.070312 85.292969 315.683594 85.90625 C 316.296875 86.519531 316.84375 87.183594 317.324219 87.90625 C 317.804688 88.625 318.214844 89.386719 318.542969 90.1875 C 318.875 90.984375 319.125 91.8125 319.296875 92.660156 C 319.464844 93.511719 319.550781 94.367188 319.550781 95.234375 Z M 319.550781 95.234375 " fill-opacity="1" fill-rule="nonzero"/><path fill="#b6ccd7" d="M 266.773438 95.234375 C 266.773438 96.101562 266.691406 96.960938 266.519531 97.808594 C 266.351562 98.660156 266.101562 99.484375 265.769531 100.285156 C 265.4375 101.082031 265.03125 101.84375 264.550781 102.566406 C 264.070312 103.285156 263.523438 103.953125 262.910156 104.5625 C 262.296875 105.175781 261.632812 105.722656 260.910156 106.203125 C 260.191406 106.6875 259.429688 107.09375 258.628906 107.421875 C 257.828125 107.753906 257.003906 108.003906 256.15625 108.175781 C 255.304688 108.34375 254.449219 108.429688 253.582031 108.429688 C 252.714844 108.429688 251.855469 108.34375 251.007812 108.175781 C 250.15625 108.003906 249.332031 107.753906 248.53125 107.421875 C 247.730469 107.09375 246.972656 106.6875 246.25 106.203125 C 245.53125 105.722656 244.863281 105.175781 244.25 104.5625 C 243.640625 103.953125 243.09375 103.285156 242.609375 102.566406 C 242.128906 101.84375 241.722656 101.082031 241.390625 100.285156 C 241.058594 99.484375 240.808594 98.660156 240.640625 97.808594 C 240.472656 96.960938 240.386719 96.101562 240.386719 95.234375 C 240.386719 94.367188 240.472656 93.511719 240.640625 92.660156 C 240.808594 91.8125 241.058594 90.984375 241.390625 90.1875 C 241.722656 89.386719 242.128906 88.625 242.609375 87.90625 C 243.09375 87.183594 243.640625 86.519531 244.25 85.90625 C 244.863281 85.292969 245.53125 84.746094 246.25 84.265625 C 246.972656 83.785156 247.730469 83.378906 248.53125 83.046875 C 249.332031 82.714844 250.15625 82.464844 251.007812 82.296875 C 251.855469 82.125 252.714844 82.042969 253.582031 82.042969 C 254.449219 82.042969 255.304688 82.125 256.15625 82.296875 C 257.003906 82.464844 257.828125 82.714844 258.628906 83.046875 C 259.429688 83.378906 260.191406 83.785156 260.910156 84.265625 C 261.632812 84.746094 262.296875 85.292969 262.910156 85.90625 C 263.523438 86.519531 264.070312 87.183594 264.550781 87.90625 C 265.03125 88.625 265.4375 89.386719 265.769531 90.1875 C 266.101562 90.984375 266.351562 91.8125 266.519531 92.660156 C 266.691406 93.511719 266.773438 94.367188 266.773438 95.234375 Z M 266.773438 95.234375 " fill-opacity="1" fill-rule="nonzero"/><path fill="#b6ccd7" d="M 214 95.234375 C 214 96.101562 213.914062 96.960938 213.746094 97.808594 C 213.578125 98.660156 213.328125 99.484375 212.996094 100.285156 C 212.664062 101.082031 212.257812 101.84375 211.777344 102.566406 C 211.296875 103.285156 210.75 103.953125 210.136719 104.5625 C 209.523438 105.175781 208.855469 105.722656 208.136719 106.203125 C 207.417969 106.6875 206.65625 107.09375 205.855469 107.421875 C 205.054688 107.753906 204.230469 108.003906 203.378906 108.175781 C 202.53125 108.34375 201.671875 108.429688 200.808594 108.429688 C 199.941406 108.429688 199.082031 108.34375 198.234375 108.175781 C 197.382812 108.003906 196.558594 107.753906 195.757812 107.421875 C 194.957031 107.09375 194.199219 106.6875 193.476562 106.203125 C 192.757812 105.722656 192.089844 105.175781 191.476562 104.5625 C 190.863281 103.953125 190.316406 103.285156 189.835938 102.566406 C 189.355469 101.84375 188.949219 101.082031 188.617188 100.285156 C 188.285156 99.484375 188.035156 98.660156 187.867188 97.808594 C 187.699219 96.960938 187.613281 96.101562 187.613281 95.234375 C 187.613281 94.367188 187.699219 93.511719 187.867188 92.660156 C 188.035156 91.8125 188.285156 90.984375 188.617188 90.1875 C 188.949219 89.386719 189.355469 88.625 189.835938 87.90625 C 190.316406 87.183594 190.863281 86.519531 191.476562 85.90625 C 192.089844 85.292969 192.757812 84.746094 193.476562 84.265625 C 194.199219 83.785156 194.957031 83.378906 195.757812 83.046875 C 196.558594 82.714844 197.382812 82.464844 198.234375 82.296875 C 199.082031 82.125 199.941406 82.042969 200.808594 82.042969 C 201.671875 82.042969 202.53125 82.125 203.378906 82.296875 C 204.230469 82.464844 205.054688 82.714844 205.855469 83.046875 C 206.65625 83.378906 207.417969 83.785156 208.136719 84.265625 C 208.855469 84.746094 209.523438 85.292969 210.136719 85.90625 C 210.75 86.519531 211.296875 87.183594 211.777344 87.90625 C 212.257812 88.625 212.664062 89.386719 212.996094 90.1875 C 213.328125 90.984375 213.578125 91.8125 213.746094 92.660156 C 213.914062 93.511719 214 94.367188 214 95.234375 Z M 214 95.234375 " fill-opacity="1" fill-rule="nonzero"/><g fill="#0057ff" fill-opacity="0.302"><g transform="translate(35.114171, 252.313709)"><g><path d="M 40.9375 -34.140625 L 40.9375 -25.71875 L 17.765625 -19.46875 L 40.9375 -13.28125 L 40.9375 -4.859375 L 3.09375 -15.453125 L 3.09375 -23.5625 Z M 40.9375 -34.140625 "/></g></g></g><g fill="#0057ff" fill-opacity="0.302"><g transform="translate(79.146639, 252.313709)"><g><path d="M -2.859375 10.8125 L 14.59375 -54.078125 L 23.09375 -54.078125 L 5.640625 10.8125 Z M -2.859375 10.8125 "/></g></g></g><g fill="#0057ff" fill-opacity="0.302"><g transform="translate(102.089867, 252.313709)"><g><path d="M 32.828125 0 L 23.796875 0 L 15.21875 -21.9375 L 11.59375 -14.453125 L 11.59375 0 L 3.09375 0 L 3.09375 -53.6875 L 11.59375 -53.6875 L 11.59375 -33.375 L 20.703125 -53.6875 L 29.96875 -53.6875 L 19.859375 -31.90625 Z M 32.828125 0 "/></g></g></g><g fill="#0057ff" fill-opacity="0.502"><g transform="translate(32.569071, 250.395848)"><g><path d="M 40.9375 -34.140625 L 40.9375 -25.71875 L 17.765625 -19.46875 L 40.9375 -13.28125 L 40.9375 -4.859375 L 3.09375 -15.453125 L 3.09375 -23.5625 Z M 40.9375 -34.140625 "/></g></g></g><g fill="#0057ff" fill-opacity="0.502"><g transform="translate(76.601539, 250.395848)"><g><path d="M -2.859375 10.8125 L 14.59375 -54.078125 L 23.09375 -54.078125 L 5.640625 10.8125 Z M -2.859375 10.8125 "/></g></g></g><g fill="#0057ff" fill-opacity="0.502"><g transform="translate(99.544767, 250.395848)"><g><path d="M 32.828125 0 L 23.796875 0 L 15.21875 -21.9375 L 11.59375 -14.453125 L 11.59375 0 L 3.09375 0 L 3.09375 -53.6875 L 11.59375 -53.6875 L 11.59375 -33.375 L 20.703125 -53.6875 L 29.96875 -53.6875 L 19.859375 -31.90625 Z M 32.828125 0 "/></g></g></g><g fill="#f2f1e8" fill-opacity="1"><g transform="translate(30.023973, 248.477972)"><g><path d="M 40.9375 -34.140625 L 40.9375 -25.71875 L 17.765625 -19.46875 L 40.9375 -13.28125 L 40.9375 -4.859375 L 3.09375 -15.453125 L 3.09375 -23.5625 Z M 40.9375 -34.140625 "/></g></g></g><g fill="#f2f1e8" fill-opacity="1"><g transform="translate(74.056441, 248.477972)"><g><path d="M -2.859375 10.8125 L 14.59375 -54.078125 L 23.09375 -54.078125 L 5.640625 10.8125 Z M -2.859375 10.8125 "/></g></g></g><g fill="#f2f1e8" fill-opacity="1"><g transform="translate(96.999669, 248.477972)"><g><path d="M 32.828125 0 L 23.796875 0 L 15.21875 -21.9375 L 11.59375 -14.453125 L 11.59375 0 L 3.09375 0 L 3.09375 -53.6875 L 11.59375 -53.6875 L 11.59375 -33.375 L 20.703125 -53.6875 L 29.96875 -53.6875 L 19.859375 -31.90625 Z M 32.828125 0 "/></g></g></g><g fill="#0057ff" fill-opacity="0.302"><g transform="translate(133.375883, 252.313709)"><g><path d="M 26.65625 0 L 18.15625 0 L 18.15625 -19.3125 L 3.09375 -11.59375 L 3.09375 -53.6875 L 11.59375 -53.6875 L 11.59375 -25.34375 L 18.15625 -28.734375 L 18.15625 -39.015625 L 26.65625 -43.265625 Z M 26.65625 0 "/></g></g></g><g fill="#0057ff" fill-opacity="0.502"><g transform="translate(130.830783, 250.395848)"><g><path d="M 26.65625 0 L 18.15625 0 L 18.15625 -19.3125 L 3.09375 -11.59375 L 3.09375 -53.6875 L 11.59375 -53.6875 L 11.59375 -25.34375 L 18.15625 -28.734375 L 18.15625 -39.015625 L 26.65625 -43.265625 Z M 26.65625 0 "/></g></g></g><g fill="#e34a21" fill-opacity="1"><g transform="translate(128.285685, 248.477972)"><g><path d="M 26.65625 0 L 18.15625 0 L 18.15625 -19.3125 L 3.09375 -11.59375 L 3.09375 -53.6875 L 11.59375 -53.6875 L 11.59375 -25.34375 L 18.15625 -28.734375 L 18.15625 -39.015625 L 26.65625 -43.265625 Z M 26.65625 0 "/></g></g></g><g fill="#0057ff" fill-opacity="0.302"><g transform="translate(163.106354, 252.313709)"><g><path d="M 23.5625 -45.578125 L 11.59375 -45.578125 L 11.59375 -31.125 L 23.5625 -37.3125 L 23.5625 -27.8125 L 11.59375 -21.625 L 11.59375 -8.109375 L 23.5625 -8.109375 L 23.5625 0 L 3.09375 0 L 3.09375 -46.34375 C 3.09375 -48.40625 3.773438 -50.144531 5.140625 -51.5625 C 6.503906 -52.976562 8.140625 -53.6875 10.046875 -53.6875 L 23.5625 -53.6875 Z M 23.5625 -45.578125 "/></g></g></g><g fill="#0057ff" fill-opacity="0.302"><g transform="translate(188.985082, 252.313709)"><g><path d="M 9.65625 0 L 9.65625 -45.578125 L 1.15625 -45.578125 L 1.15625 -53.6875 L 26.65625 -53.6875 L 26.65625 -45.578125 L 18.15625 -45.578125 L 18.15625 0 Z M 9.65625 0 "/></g></g></g><g fill="#0057ff" fill-opacity="0.302"><g transform="translate(216.795059, 252.313709)"><g><path d="M 3.09375 0 L 3.09375 -46.34375 C 3.09375 -48.40625 3.773438 -50.144531 5.140625 -51.5625 C 6.503906 -52.976562 8.140625 -53.6875 10.046875 -53.6875 L 19.703125 -53.6875 C 21.609375 -53.6875 23.242188 -52.976562 24.609375 -51.5625 C 25.972656 -50.144531 26.65625 -48.40625 26.65625 -46.34375 L 26.65625 0 L 18.15625 0 L 18.15625 -22.78125 L 11.59375 -19.3125 L 11.59375 0 Z M 11.59375 -28.8125 L 18.15625 -32.296875 L 18.15625 -45.578125 L 11.59375 -45.578125 Z M 11.59375 -28.8125 "/></g></g></g><g fill="#0057ff" fill-opacity="0.302"><g transform="translate(246.536283, 252.313709)"><g><path d="M 11.59375 0 L 3.09375 0 L 3.09375 -53.6875 L 11.59375 -53.6875 L 11.59375 -49.75 C 11.894531 -50.414062 12.304688 -51.035156 12.828125 -51.609375 C 14.210938 -52.992188 15.859375 -53.6875 17.765625 -53.6875 L 19.703125 -53.6875 C 21.609375 -53.6875 23.242188 -52.976562 24.609375 -51.5625 C 25.972656 -50.144531 26.65625 -48.40625 26.65625 -46.34375 L 26.65625 0 L 18.15625 0 L 18.15625 -45.578125 L 11.59375 -45.578125 Z M 11.59375 0 "/></g></g></g><g fill="#0057ff" fill-opacity="0.302"><g transform="translate(276.277507, 252.313709)"><g><path d="M 26.65625 -46.34375 L 26.65625 -7.34375 C 26.65625 -5.28125 25.972656 -3.539062 24.609375 -2.125 C 23.242188 -0.707031 21.609375 0 19.703125 0 L 10.046875 0 C 8.140625 0 6.503906 -0.71875 5.140625 -2.15625 C 3.773438 -3.601562 3.09375 -5.332031 3.09375 -7.34375 L 3.09375 -46.34375 C 3.09375 -48.40625 3.773438 -50.144531 5.140625 -51.5625 C 6.503906 -52.976562 8.140625 -53.6875 10.046875 -53.6875 L 19.703125 -53.6875 C 21.609375 -53.6875 23.242188 -52.976562 24.609375 -51.5625 C 25.972656 -50.144531 26.65625 -48.40625 26.65625 -46.34375 Z M 18.15625 -8.109375 L 18.15625 -45.578125 L 11.59375 -45.578125 L 11.59375 -8.109375 Z M 18.15625 -8.109375 "/></g></g></g><g fill="#0057ff" fill-opacity="0.302"><g transform="translate(306.018731, 252.313709)"><g><path d="M 3.0625 -4.859375 L 3.0625 -13.28125 L 26.234375 -19.53125 L 3.0625 -25.71875 L 3.0625 -34.140625 L 40.90625 -23.546875 L 40.90625 -15.4375 Z M 3.0625 -4.859375 "/></g></g></g><g fill="#0057ff" fill-opacity="0.502"><g transform="translate(160.561254, 250.395848)"><g><path d="M 23.5625 -45.578125 L 11.59375 -45.578125 L 11.59375 -31.125 L 23.5625 -37.3125 L 23.5625 -27.8125 L 11.59375 -21.625 L 11.59375 -8.109375 L 23.5625 -8.109375 L 23.5625 0 L 3.09375 0 L 3.09375 -46.34375 C 3.09375 -48.40625 3.773438 -50.144531 5.140625 -51.5625 C 6.503906 -52.976562 8.140625 -53.6875 10.046875 -53.6875 L 23.5625 -53.6875 Z M 23.5625 -45.578125 "/></g></g></g><g fill="#0057ff" fill-opacity="0.502"><g transform="translate(186.439983, 250.395848)"><g><path d="M 9.65625 0 L 9.65625 -45.578125 L 1.15625 -45.578125 L 1.15625 -53.6875 L 26.65625 -53.6875 L 26.65625 -45.578125 L 18.15625 -45.578125 L 18.15625 0 Z M 9.65625 0 "/></g></g></g><g fill="#0057ff" fill-opacity="0.502"><g transform="translate(214.249959, 250.395848)"><g><path d="M 3.09375 0 L 3.09375 -46.34375 C 3.09375 -48.40625 3.773438 -50.144531 5.140625 -51.5625 C 6.503906 -52.976562 8.140625 -53.6875 10.046875 -53.6875 L 19.703125 -53.6875 C 21.609375 -53.6875 23.242188 -52.976562 24.609375 -51.5625 C 25.972656 -50.144531 26.65625 -48.40625 26.65625 -46.34375 L 26.65625 0 L 18.15625 0 L 18.15625 -22.78125 L 11.59375 -19.3125 L 11.59375 0 Z M 11.59375 -28.8125 L 18.15625 -32.296875 L 18.15625 -45.578125 L 11.59375 -45.578125 Z M 11.59375 -28.8125 "/></g></g></g><g fill="#0057ff" fill-opacity="0.502"><g transform="translate(243.991183, 250.395848)"><g><path d="M 11.59375 0 L 3.09375 0 L 3.09375 -53.6875 L 11.59375 -53.6875 L 11.59375 -49.75 C 11.894531 -50.414062 12.304688 -51.035156 12.828125 -51.609375 C 14.210938 -52.992188 15.859375 -53.6875 17.765625 -53.6875 L 19.703125 -53.6875 C 21.609375 -53.6875 23.242188 -52.976562 24.609375 -51.5625 C 25.972656 -50.144531 26.65625 -48.40625 26.65625 -46.34375 L 26.65625 0 L 18.15625 0 L 18.15625 -45.578125 L 11.59375 -45.578125 Z M 11.59375 0 "/></g></g></g><g fill="#0057ff" fill-opacity="0.502"><g transform="translate(273.732407, 250.395848)"><g><path d="M 26.65625 -46.34375 L 26.65625 -7.34375 C 26.65625 -5.28125 25.972656 -3.539062 24.609375 -2.125 C 23.242188 -0.707031 21.609375 0 19.703125 0 L 10.046875 0 C 8.140625 0 6.503906 -0.71875 5.140625 -2.15625 C 3.773438 -3.601562 3.09375 -5.332031 3.09375 -7.34375 L 3.09375 -46.34375 C 3.09375 -48.40625 3.773438 -50.144531 5.140625 -51.5625 C 6.503906 -52.976562 8.140625 -53.6875 10.046875 -53.6875 L 19.703125 -53.6875 C 21.609375 -53.6875 23.242188 -52.976562 24.609375 -51.5625 C 25.972656 -50.144531 26.65625 -48.40625 26.65625 -46.34375 Z M 18.15625 -8.109375 L 18.15625 -45.578125 L 11.59375 -45.578125 L 11.59375 -8.109375 Z M 18.15625 -8.109375 "/></g></g></g><g fill="#0057ff" fill-opacity="0.502"><g transform="translate(303.473631, 250.395848)"><g><path d="M 3.0625 -4.859375 L 3.0625 -13.28125 L 26.234375 -19.53125 L 3.0625 -25.71875 L 3.0625 -34.140625 L 40.90625 -23.546875 L 40.90625 -15.4375 Z M 3.0625 -4.859375 "/></g></g></g><g fill="#f2f1e8" fill-opacity="1"><g transform="translate(158.016156, 248.477972)"><g><path d="M 23.5625 -45.578125 L 11.59375 -45.578125 L 11.59375 -31.125 L 23.5625 -37.3125 L 23.5625 -27.8125 L 11.59375 -21.625 L 11.59375 -8.109375 L 23.5625 -8.109375 L 23.5625 0 L 3.09375 0 L 3.09375 -46.34375 C 3.09375 -48.40625 3.773438 -50.144531 5.140625 -51.5625 C 6.503906 -52.976562 8.140625 -53.6875 10.046875 -53.6875 L 23.5625 -53.6875 Z M 23.5625 -45.578125 "/></g></g></g><g fill="#f2f1e8" fill-opacity="1"><g transform="translate(183.894885, 248.477972)"><g><path d="M 9.65625 0 L 9.65625 -45.578125 L 1.15625 -45.578125 L 1.15625 -53.6875 L 26.65625 -53.6875 L 26.65625 -45.578125 L 18.15625 -45.578125 L 18.15625 0 Z M 9.65625 0 "/></g></g></g><g fill="#f2f1e8" fill-opacity="1"><g transform="translate(211.704861, 248.477972)"><g><path d="M 3.09375 0 L 3.09375 -46.34375 C 3.09375 -48.40625 3.773438 -50.144531 5.140625 -51.5625 C 6.503906 -52.976562 8.140625 -53.6875 10.046875 -53.6875 L 19.703125 -53.6875 C 21.609375 -53.6875 23.242188 -52.976562 24.609375 -51.5625 C 25.972656 -50.144531 26.65625 -48.40625 26.65625 -46.34375 L 26.65625 0 L 18.15625 0 L 18.15625 -22.78125 L 11.59375 -19.3125 L 11.59375 0 Z M 11.59375 -28.8125 L 18.15625 -32.296875 L 18.15625 -45.578125 L 11.59375 -45.578125 Z M 11.59375 -28.8125 "/></g></g></g><g fill="#f2f1e8" fill-opacity="1"><g transform="translate(241.446085, 248.477972)"><g><path d="M 11.59375 0 L 3.09375 0 L 3.09375 -53.6875 L 11.59375 -53.6875 L 11.59375 -49.75 C 11.894531 -50.414062 12.304688 -51.035156 12.828125 -51.609375 C 14.210938 -52.992188 15.859375 -53.6875 17.765625 -53.6875 L 19.703125 -53.6875 C 21.609375 -53.6875 23.242188 -52.976562 24.609375 -51.5625 C 25.972656 -50.144531 26.65625 -48.40625 26.65625 -46.34375 L 26.65625 0 L 18.15625 0 L 18.15625 -45.578125 L 11.59375 -45.578125 Z M 11.59375 0 "/></g></g></g><g fill="#f2f1e8" fill-opacity="1"><g transform="translate(271.187309, 248.477972)"><g><path d="M 26.65625 -46.34375 L 26.65625 -7.34375 C 26.65625 -5.28125 25.972656 -3.539062 24.609375 -2.125 C 23.242188 -0.707031 21.609375 0 19.703125 0 L 10.046875 0 C 8.140625 0 6.503906 -0.71875 5.140625 -2.15625 C 3.773438 -3.601562 3.09375 -5.332031 3.09375 -7.34375 L 3.09375 -46.34375 C 3.09375 -48.40625 3.773438 -50.144531 5.140625 -51.5625 C 6.503906 -52.976562 8.140625 -53.6875 10.046875 -53.6875 L 19.703125 -53.6875 C 21.609375 -53.6875 23.242188 -52.976562 24.609375 -51.5625 C 25.972656 -50.144531 26.65625 -48.40625 26.65625 -46.34375 Z M 18.15625 -8.109375 L 18.15625 -45.578125 L 11.59375 -45.578125 L 11.59375 -8.109375 Z M 18.15625 -8.109375 "/></g></g></g><g fill="#f2f1e8" fill-opacity="1"><g transform="translate(300.928533, 248.477972)"><g><path d="M 3.0625 -4.859375 L 3.0625 -13.28125 L 26.234375 -19.53125 L 3.0625 -25.71875 L 3.0625 -34.140625 L 40.90625 -23.546875 L 40.90625 -15.4375 Z M 3.0625 -4.859375 "/></g></g></g></svg>